<svg height="512" viewBox="0 0 512 512" width="512" xmlns="http://www.w3.org/2000/svg"><g id="filled_outline" data-name="filled outline"><path d="m88 88h400v304h-344v40h-56z" fill="#02c26a"/><path d="m192 232h48v128h-48z" fill="#8098ab"/><path d="m64 96h-40v-24h64v416h-24z" fill="#e0edff"/><path d="m24 224h40v32h-40z" fill="#d1e4ff"/><path d="m24 376h40v32h-40z" fill="#d1e4ff"/><path d="m40 256h24v120h-24z" fill="#bdd1f2"/><path d="m208 392h160v32h-160z" fill="#ffc431"/><path d="m400 392h64v32h-64z" fill="#ffc431"/><path d="m88 232h56v128h-56z" fill="#00b55b"/><path d="m304 264h96v80h-96z" fill="#8098ab"/><path d="m352 136h56v56h-56z" fill="#8098ab"/><path d="m456 120h32v96h-32z" fill="#ffc431"/><path d="m120 120h160v80h-160z" fill="#8098ab"/><path d="m448 320h40v40h-40z" fill="#ffc431"/><path d="m24.00012 416h32v72a7.99977 7.99977 0 0 0 8 8h24a7.99977 7.99977 0 0 0 8-8v-48h48a7.99977 7.99977 0 0 0 8-8v-32h48v24a7.99977 7.99977 0 0 0 8 8h160a7.99977 7.99977 0 0 0 8-8v-24h16v24a7.99977 7.99977 0 0 0 8 8h64a7.99977 7.99977 0 0 0 8-8v-24h16a7.99977 7.99977 0 0 0 8-8v-304a7.99977 7.99977 0 0 0 -8-8h-392v-8a7.99977 7.99977 0 0 0 -8-8h-64a7.99977 7.99977 0 0 0 -8 8v24a7.99977 7.99977 0 0 0 8 8h32v112h-32a7.99977 7.99977 0 0 0 -8 8v32a7.99977 7.99977 0 0 0 8 8h8v104h-8a7.99977 7.99977 0 0 0 -8 8v32a7.99977 7.99977 0 0 0 8 8zm192-16h16v16h-16zm112 0v16h-16v-16zm-32 16h-16v-16h16zm-32 0h-16v-16h16zm96 0h-16v-16h16zm48-16h16v16h-16zm48 16h-16v-16h16zm24-64h-24v-24h24zm-16-192h16v16h-16zm0-16v-16h16v16zm0 48h16v16h-16zm16-96v16h-24a7.99977 7.99977 0 0 0 -8 8v96a7.99977 7.99977 0 0 0 8 8h24v88h-32a7.99977 7.99977 0 0 0 -8 8v40a7.99977 7.99977 0 0 0 8 8h32v16h-336a7.99977 7.99977 0 0 0 -8 8v32h-40v-24h24v-16h-24v-16h48a7.99977 7.99977 0 0 0 8-8v-128a7.99977 7.99977 0 0 0 -8-8h-48v-128zm-384 144h40v112h-40zm-64-152v-8h48v400h-8v-384a7.99977 7.99977 0 0 0 -8-8zm0 144h24v16h-24zm16 32h8v104h-8zm-16 120h24v16h-24z"/><path d="m248.00012 232a7.99977 7.99977 0 0 0 -8-8h-48a7.99977 7.99977 0 0 0 -8 8v8h-16v16h16v16h-16v16h16v16h-16v16h16v16h-16v16h16v8a7.99977 7.99977 0 0 0 8 8h48a7.99977 7.99977 0 0 0 8-8v-8h16v-16h-16v-16h16v-16h-16v-16h16v-16h-16v-16h16v-16h-16zm-48 8h32v16h-32zm32 48h-32v-16h32zm0 32h-32v-16h32zm0 32h-32v-16h32z"/><path d="m280.00012 272v16h16v8h-16v16h16v8h-16v16h16v8a7.99977 7.99977 0 0 0 8 8h16v16h16v-16h8v16h16v-16h8v16h16v-16h16a7.99977 7.99977 0 0 0 8-8v-8h16v-16h-16v-8h16v-16h-16v-8h16v-16h-16v-8a7.99977 7.99977 0 0 0 -8-8h-16v-16h-16v16h-8v-16h-16v16h-8v-16h-16v16h-16a7.99977 7.99977 0 0 0 -8 8v8zm32 0h80v64h-80z"/><path d="m344.00012 192a7.99977 7.99977 0 0 0 8 8h8v16h16v-16h8v16h16v-16h8a7.99977 7.99977 0 0 0 8-8v-8h16v-16h-16v-8h16v-16h-16v-8a7.99977 7.99977 0 0 0 -8-8h-8v-16h-16v16h-8v-16h-16v16h-8a7.99977 7.99977 0 0 0 -8 8v8h-16v16h16v8h-16v16h16zm16-48h40v40h-40z"/><path d="m120.00012 208h160a7.99977 7.99977 0 0 0 8-8v-80a7.99977 7.99977 0 0 0 -8-8h-160a7.99977 7.99977 0 0 0 -8 8v80a7.99977 7.99977 0 0 0 8 8zm8-40h16v24h-16zm96 0h16v24h-16zm-16 24h-16v-24h16zm16-40v-24h16v24zm-16 0h-16v-24h16zm-32 0h-16v-24h16zm0 16v24h-16v-24zm80 24v-24h16v24zm16-40h-16v-24h16zm-128-24v24h-16v-24z"/></g></svg>