<?xml version="1.0" encoding="utf-8"?>
<!-- Generator: Adobe Illustrator 24.0.1, SVG Export Plug-In . SVG Version: 6.00 Build 0)  -->
<svg version="1.1" id="Layer_1" xmlns="http://www.w3.org/2000/svg" xmlns:xlink="http://www.w3.org/1999/xlink" x="0px" y="0px"
	 viewBox="0 0 512 512" style="enable-background:new 0 0 512 512;" xml:space="preserve">
<style type="text/css">
	.st0{fill:#8098AB;}
	.st1{fill:#62798C;}
	.st2{fill:#556C80;}
	.st3{fill:#FFC431;}
	.st4{fill:#C8DBF7;}
	.st5{fill:#FFE28F;}
	.st6{fill:#E8F2FF;}
</style>
<g id="filled_outline">
	<path class="st0" d="M64.1,119.6l384.6,1.1l-0.8,271.5l-384.6-1.1L64.1,119.6z"/>
	<path class="st1" d="M414.7,154.6l-101.8-2.5l-0.3,91.1L97.7,232.9l-0.3,90.5c18.4-0.1,33.9,15.6,33.5,34.4
		c65.2,1.2,219.8,3.2,283.2,0.5L414.7,154.6z"/>
	<path class="st2" d="M244.4,289.9l-67.7-0.2l-0.1,33.9l69.7,0.2L244.4,289.9z"/>
	<path class="st3" d="M188.2,233.1l-45.4,45.1l-45.3-0.1l0.3-90.5c18.3,0.2,34-15.2,34-33.8L211,154l-0.2,75.3L188.2,233.1z"/>
	<path class="st4" d="M335.3,233.6c29.3,33.3-16.3,73-45.4,45.1C260.5,245.4,306.2,205.6,335.3,233.6z"/>
	<path class="st5" d="M165.7,187.8c22,25-12.3,54.7-34,33.8C109.7,196.7,144,167,165.7,187.8z"/>
	<path d="M55.3,391.1c0,4.4,3.6,8,8,8l384.7,1.1c4.4,0,8-3.6,8-8l0.8-271.5c0-4.4-3.6-8-8-8l-384.7-1.1c-4.4,0-8,3.6-8,8L55.3,391.1
		z M440.7,128.7L440,384.3l-368.7-1.1L72,127.6L440.7,128.7z"/>
	<path class="st6" d="M386.3,182.8c94.1,104.8-48.8,239.4-147.5,146.6C144.7,224.7,287.6,90.1,386.3,182.8z"/>
	<path d="M284.2,284.3c41.1,36.8,91.6-19.5,56.7-56.4C299.8,191.1,249.4,247.4,284.2,284.3z M329.6,239.2c22,25-12.3,54.7-34,33.8
		C273.6,248.1,307.9,218.4,329.6,239.2z"/>
	<path d="M131.6,244.3c6.8,7.2-3.2,18.3-11.3,11.3C113.5,248.4,123.5,237.3,131.6,244.3z"/>
	<path d="M115.6,339c13.2,17.3,3.1,27.3,17.3,26.8c20.1,0.3,179.2,2.4,179.3,2.4v0C457.4,360.9,415,397,424.6,256.6l0,0
		c0-0.1,0-0.1,0-0.3l0,0c-7.2-145.2,28.8-102.6-111.5-112.2v0c-37.3-0.2-73.5,18.9-94.1,50.5c0.8-69.8,8-43.7-86.3-48.8
		c-0.7,0.1-8.2,0.5-8.8,8c-7.5,43.1-39,8.8-34.1,45.5C89.5,371,83.1,314.9,115.6,339z M406.3,350.4L372,351
		c14.2-8.9,26.2-20.8,35.1-34.9L406.3,350.4z M406.8,162.4l0.6,34.1c-8.9-14.1-20.8-26-34.8-35L406.8,162.4z M223.1,221.3
		c54.8-121,224.4-45.4,177.3,73.6C344.4,407.9,183,338.3,223.1,221.3z M217.7,315.7l-33.1-0.1l0.1-17.9l23.9,0.1
		C211,304,214.1,310,217.7,315.7z M140.5,218.5c-18.6-12.8-0.5-37.1,16-27.6C175.7,203.2,157.6,228.2,140.5,218.5z M164.9,245
		c-8.5,8.4-17,16.9-25.4,25.3l-33.9-0.1l0.2-75.3c13.6-3.9,31.6-15.7,33.3-33.1c21.3,0.1,42.6,0.1,64,0.2c0,14.7-0.1,29.4-0.1,44
		C190.2,219,177.6,232,164.9,245z M105.4,316.2l0.1-30c6.2-1,39.1,2.6,42.9-2.2c-0.1,0,45.2-44.9,45.3-45l9.5-2
		c-2.8,19.9-1.5,37.3,0.3,44.8c-25.7,1-37-6.5-34.8,18.2c0.9,17.4-2.4,22,2.3,29.3c2.6,5.6,54.8,1.2,59,2.5
		c5.7,6.4,15.2,14.5,23.6,19.6l-115.2-1.5C135.3,332.9,122.3,319.5,105.4,316.2L105.4,316.2z"/>
	<path d="M103.6,148c6.8,7.2-3.2,18.3-11.3,11.3C85.5,152.1,95.5,141,103.6,148z"/>
	<path d="M103,351.7c6.8,7.2-3.2,18.3-11.3,11.3C84.9,355.8,94.9,344.7,103,351.7z"/>
</g>
</svg>
