<?xml version="1.0" encoding="utf-8"?>
<!-- Generator: Adobe Illustrator 24.0.1, SVG Export Plug-In . SVG Version: 6.00 Build 0)  -->
<svg version="1.1" id="Layer_1" xmlns="http://www.w3.org/2000/svg" xmlns:xlink="http://www.w3.org/1999/xlink" x="0px" y="0px"
	 viewBox="0 0 512 512" style="enable-background:new 0 0 512 512;" xml:space="preserve">
<style type="text/css">
	.st0{fill:#02C26A;}
	.st1{fill:#718799;}
	.st2{fill:#FFC431;}
	.st3{fill:#FFB401;}
	.st4{fill:#00B55B;}
	.st5{fill:#62798C;}
	.st6{fill:#556C80;}
	.st7{fill:#8098AB;}
	.st8{fill:#262626;}
</style>
<g id="filled_outline">
	<path class="st0" d="M56,48h432v416H56V48z"/>
	<path class="st1" d="M392,80h96v304h-96V80z"/>
	<path class="st2" d="M56,272h80v192H56V272z"/>
	<path class="st2" d="M56,48h104v72H56V48z"/>
	<path class="st3" d="M24,72h32v32H24V72z"/>
	<path class="st3" d="M24,288h32v32H24V288z"/>
	<path class="st3" d="M24,360h32v64H24V360z"/>
	<path class="st1" d="M56,120h104v152H56V120z"/>
	<circle class="st4" cx="184" cy="424" r="16"/>
	<circle class="st4" cx="184" cy="392" r="16"/>
	<path class="st4" d="M232,416h256v48H232V416z"/>
	<path class="st5" d="M232,344h160v72H232V344z"/>
	<path class="st6" d="M232,304h160v40H232V304z"/>
	<path class="st5" d="M160,144h64v128h-64V144z"/>
	<path class="st2" d="M280,152h112v120H280V152z"/>
	<path class="st3" d="M304,176h64v72h-64V176z"/>
	<path class="st2" d="M328,88h64v32h-64V88z"/>
	<g>
		<path class="st7" d="M200,48h96v64h-96V48z"/>
		<path class="st7" d="M392,48h96v32h-96V48z"/>
		<path class="st7" d="M392,384h96v32h-96V384z"/>
		<circle class="st7" cx="224" cy="256" r="16"/>
		<circle class="st7" cx="224" cy="224" r="16"/>
		<circle class="st7" cx="224" cy="192" r="16"/>
		<circle class="st7" cx="224" cy="160" r="16"/>
	</g>
	<path class="st8" d="M24,432h24v32c0,4.4,3.6,8,8,8h432c4.4,0,8-3.6,8-8V48c0-4.4-3.6-8-8-8H56c-4.4,0-8,3.6-8,8v16H24
		c-4.4,0-8,3.6-8,8v32c0,4.4,3.6,8,8,8h24v168H24c-4.4,0-8,3.6-8,8v32c0,4.4,3.6,8,8,8h24v24H24c-4.4,0-8,3.6-8,8v64
		C16,428.4,19.6,432,24,432z M32,416v-16h16v16H32z M64,344h64v112H64V344z M208,88h16v16h-16V88z M240,88h16v16h-16V88z M272,88h16
		v16h-16V88z M288,72h-16V56h16V72z M256,72h-16V56h16V72z M224,72h-16V56h16V72z M200,120h96c4.4,0,8-3.6,8-8V56h80v24h-56
		c-4.4,0-8,3.6-8,8v32c0,4.4,3.6,8,8,8h56v16H280c-4.4,0-8,3.6-8,8v120c0,4.4,3.6,8,8,8h104v16H232c-4.4,0-8,3.6-8,8v8h-24v-32h24
		c13.2,0,24-10.7,24-24c0-5.9-2.2-11.6-6.1-16c8.2-9.1,8.2-22.9,0-32c8.2-9.1,8.2-22.9,0-32c8.8-9.9,8-25-1.8-33.9
		c-4.4-4-10.1-6.1-16-6.1h-56V56h24v56C192,116.4,195.6,120,200,120z M144,280h16v32c0,22.1,17.9,40,40,40h24v104h-80V280z M168,152
		h33.4c-1.8,5.2-1.8,10.8,0,16H168V152z M232,256c0,4.4-3.6,8-8,8s-8-3.6-8-8c0-4.4,3.6-8,8-8C228.4,248,232,251.5,232,256z
		 M216,224c0-4.4,3.6-8,8-8s8,3.6,8,8s-3.6,8-8,8C219.6,232,216,228.4,216,224z M216,192c0-4.4,3.6-8,8-8s8,3.6,8,8s-3.6,8-8,8
		C219.6,200,216,196.4,216,192z M224,168c-4.4,0-8-3.6-8-8s3.6-8,8-8s8,3.6,8,8C232,164.4,228.4,168,224,168z M168,184h33.4
		c-1.8,5.2-1.8,10.8,0,16H168V184z M168,216h33.4c-1.8,5.2-1.8,10.8,0,16H168V216z M168,248h33.4c-1.8,5.2-1.8,10.8,0,16H168V248z
		 M200,328h24v8h-24c-13.2,0-24-10.8-24-24v-32h8v32C184,320.8,191.2,328,200,328z M384,264h-96V160h96V264z M368,96h16v16h-16V96z
		 M432,376V88h16v288H432z M416,376h-16V88h16V376z M384,336H240v-24h144V336z M240,352h144v56H240V352z M400,392h32v16h-32V392z
		 M448,392h32v16h-32V392z M464,376V88h16v288H464z M400,72V56h32v16H400z M336,112V96h16v16H336z M152,264h-16V128h16V264z
		 M120,264h-16V128h16V264z M88,264H64V128h24V264z M64,280h64v48H64V280z M240,456v-32h240v32H240z M480,72h-32V56h32V72z M64,56
		h88v56H64V56z M32,96V80h16v16H32z M32,312v-16h16v16H32z M32,368h16v16H32V368z"/>
	<path class="st8" d="M208,392c0-13.3-10.7-24-24-24c-13.3,0-24,10.7-24,24c0,5.9,2.2,11.6,6.1,16c-8.8,9.9-8,25,1.8,33.9
		c9.9,8.8,25,8,33.9-1.8c8.2-9.1,8.2-22.9,0-32C205.8,403.6,208,397.9,208,392z M184,384c4.4,0,8,3.6,8,8s-3.6,8-8,8s-8-3.6-8-8
		C176,387.6,179.6,384,184,384z M184,432c-4.4,0-8-3.6-8-8s3.6-8,8-8s8,3.6,8,8C192,428.4,188.4,432,184,432z"/>
	<path class="st8" d="M248,432h224v16H248V432z"/>
</g>
</svg>
