<?xml version="1.0" encoding="utf-8"?>
<!-- Generator: Adobe Illustrator 24.0.1, SVG Export Plug-In . SVG Version: 6.00 Build 0)  -->
<svg version="1.1" id="Layer_1" xmlns="http://www.w3.org/2000/svg" xmlns:xlink="http://www.w3.org/1999/xlink" x="0px" y="0px"
	 viewBox="0 0 512 512" style="enable-background:new 0 0 512 512;" xml:space="preserve">
<style type="text/css">
	.st0{fill:#FFC431;}
	.st1{fill:#02C26A;}
	.st2{fill:#718799;}
	.st3{fill:#262626;}
</style>
<g id="filled_outline">
	<path class="st0" d="M424,112l-32.9,32.9l-18.6-18.1l-6.1-6L352.3,107l-6.1-6L332,87.3l-6.1-6L302,58l34-34l18.3,18.3l11.3,11.3
		L424,112z"/>
	<path class="st0" d="M488,176l-31.9,31.9l-50.4-45.6L440,128l18.3,18.3l11.3,11.3L488,176z"/>
	<path class="st1" d="M280,24L24,280l208,208l256-256L280,24z M88,296c-8.8,0-16-7.2-16-16s7.2-16,16-16s16,7.2,16,16
		C104,288.8,96.8,296,88,296z M232,440c-8.8,0-16-7.2-16-16s7.2-16,16-16s16,7.2,16,16C248,432.8,240.8,440,232,440z"/>
	<path class="st2" d="M120,232l120-120l160,152L280,392L120,232z"/>
	<path class="st3" d="M493.7,170.3l-48-48c-3.1-3.1-8.2-3.1-11.3,0L412,144.7l-4.7-4.7l22.3-22.3c3.1-3.1,3.1-8.2,0-11.3
		c0,0,0,0,0,0l-88-88c-3.1-3.1-8.2-3.1-11.3,0L308,40.7l-22.3-22.3c-3.1-3.1-8.2-3.1-11.3,0l-256,256c-3.1,3.1-3.1,8.2,0,11.3
		c0,0,0,0,0,0l208,208c3.1,3.1,8.2,3.1,11.3,0l256-256c3.1-3.1,3.1-8.2,0-11.3c0,0,0,0,0,0L471.3,204l22.3-22.3
		C496.8,178.5,496.8,173.5,493.7,170.3C493.7,170.3,493.7,170.3,493.7,170.3z M440,139.3l12.7,12.7L436,168.7L423.3,156L440,139.3z
		 M396,128.7L383.3,116L400,99.3l12.7,12.7L396,128.7z M343.3,76L360,59.3l8.7,8.7L352,84.7L343.3,76z M380,79.3l8.7,8.7L372,104.7
		l-8.7-8.7L380,79.3z M336,35.3L348.7,48L332,64.7L319.3,52L336,35.3z M232,476.7L35.3,280L280,35.3L340.7,96H336
		c-2.1,0-4.2,0.8-5.7,2.3L308,120.7l-8.7-8.7l18.3-18.3c3.1-3.1,3.1-8.2,0-11.3c0,0,0,0,0,0l-16-16l-11.3,11.3L300.7,88L288,100.7
		l-18.3-18.3c-3.1-3.1-8.2-3.1-11.3,0l-24,24l-120,120c-3.1,3.1-3.1,8.2,0,11.3c0,0,0,0,0,0l160,160c1.5,1.5,3.5,2.3,5.7,2.3
		c0,0,0.1,0,0.1,0c2.2,0,4.2-0.9,5.7-2.5l120-128c3-3.2,2.9-8.2-0.3-11.3l-96.6-91.8l16.8-16.8c3.1-3.1,3.1-8.2,0-11.3c0,0,0,0,0,0
		l-6.3-6.3l20-20h17.4l120,120L232,476.7z M388.7,264.3L279.8,380.5L131.3,232l108.8-108.8L388.7,264.3z M297.3,155.4l-45.8-43.5
		L264,99.3l44.7,44.7L297.3,155.4z M460,192.7L447.3,180l16.7-16.7l12.7,12.7L460,192.7z"/>
	<path class="st3" d="M112,280c0-13.3-10.7-24-24-24s-24,10.7-24,24s10.7,24,24,24C101.2,304,112,293.2,112,280z M88,288
		c-4.4,0-8-3.6-8-8s3.6-8,8-8s8,3.6,8,8C96,284.4,92.4,288,88,288z"/>
	<path class="st3" d="M232,400c-13.3,0-24,10.7-24,24s10.7,24,24,24s24-10.7,24-24C256,410.8,245.2,400,232,400z M232,432
		c-4.4,0-8-3.6-8-8s3.6-8,8-8s8,3.6,8,8C240,428.4,236.4,432,232,432z"/>
	<circle class="st3" cx="112" cy="320" r="8"/>
	<circle class="st3" cx="128" cy="304" r="8"/>
	<circle class="st3" cx="128" cy="336" r="8"/>
	<circle class="st3" cx="144" cy="320" r="8"/>
	<circle class="st3" cx="144" cy="352" r="8"/>
	<circle class="st3" cx="160" cy="336" r="8"/>
	<path class="st3" d="M162.3,378.3l24-24l11.3,11.3l-24,24L162.3,378.3z"/>
	<path class="st3" d="M178.3,394.3l24-24l11.3,11.3l-24,24L178.3,394.3z"/>
	<path class="st3" d="M338.3,162.3c-3.1,3.1-3.1,8.2,0,11.3c0,0,0,0,0,0l24,24c3.1,3.1,8.2,3.1,11.3,0l24-24c3.1-3.1,3.1-8.2,0-11.3
		c0,0,0,0,0,0l-24-24c-3.1-3.1-8.2-3.1-11.3,0L338.3,162.3z M380.7,168L368,180.7L355.3,168l12.7-12.7L380.7,168z"/>
	<path class="st3" d="M386.3,210.4l24-24l11.3,11.3l-24,24L386.3,210.4z"/>
	<path class="st3" d="M410.3,234.4l24-24l11.3,11.3l-24,24L410.3,234.4z"/>
	<path class="st3" d="M226.3,221.7l11.3-11.3l64,64l-11.3,11.3L226.3,221.7z"/>
	<path class="st3" d="M202.3,197.7l11.3-11.3l16,16l-11.3,11.3L202.3,197.7z"/>
	<path class="st3" d="M226.3,173.7l11.3-11.3l40,40l-11.3,11.3L226.3,173.7z"/>
	<path class="st3" d="M322.3,253.7l11.3-11.3l24,24l-11.3,11.3L322.3,253.7z"/>
	<path class="st3" d="M162.3,237.7l11.3-11.3l32,32l-11.3,11.3L162.3,237.7z"/>
</g>
</svg>
