<?xml version="1.0"?>
<svg xmlns="http://www.w3.org/2000/svg" id="Layer_1" enable-background="new 0 0 64 64" height="512px" viewBox="0 0 64 64" width="512px" class=""><g><g><path d="m48.7 38.5-13.7-5.5h-6l-13.7 5.5c-3.8 1.5-6.3 5.2-6.3 9.3v13.2h46v-13.2c0-4.1-2.5-7.8-6.3-9.3z" fill="#3f3f3f" data-original="#3F3F3F" class=""/><path d="m48.7 38.5-8.7-3.5c0 5.6-2.9 10.8-7.6 13.8l-.4.2-.4-.2c-4.7-3-7.6-8.2-7.6-13.8l-8.7 3.5c-2.2.9-4 2.5-5.1 4.5h.8c4.4 0 8 3.6 8 8v10h26v-10c0-4.4 3.6-8 8-8h.8c-1.1-2.1-2.9-3.6-5.1-4.5z" fill="#0ba84e" data-original="#0BA84E" class=""/><path d="m38.4 35.9-.5.3c-3.6 2.3-8.2 2.3-11.8 0l-.5-.3c-.6-.4-1.1-.8-1.6-1.3v.4c0 5.6 2.9 10.8 7.6 13.8l.4.2.4-.2c4.7-3 7.6-8.2 7.6-13.8v-.4c-.5.5-1 1-1.6 1.3z" fill="#ce7c5f" data-original="#CE7C5F" class=""/><path d="m38.4 42h-12.8c1.3 2.8 3.4 5.1 6 6.8l.4.2.4-.2c2.6-1.7 4.7-4 6-6.8z" fill="#3f3f3f" data-original="#3F3F3F" class=""/><path d="m19 53h26v4h-26z" fill="#686868" data-original="#686868" class=""/><path d="m42.2 51h5.7v2h-5.7z" fill="#b4b4b5" transform="matrix(.707 -.707 .707 .707 -23.589 47.05)" data-original="#B4B4B5" class=""/><path d="m52.5 51h-4.5c-1.1 0-2-.9-2-2v-4.9c0-.7.4-1.4 1-1.7l6.8-4c1-.6 2.2-.2 2.7.7.3.5.3 1 .2 1.5l-2.4 8.8c-.1 1-.9 1.6-1.8 1.6z" fill="#d6d7d8" data-original="#D6D7D8" class=""/><path d="m19 23c-1.1 0-2 .9-2 2v.8c0 .8.4 1.5 1.1 1.8l2.9 1.4v-6z" fill="#ce7c5f" data-original="#CE7C5F" class=""/><path d="m45 23h-2v6l2.9-1.4c.7-.3 1.1-1 1.1-1.8v-.8c0-1.1-.9-2-2-2z" fill="#ce7c5f" data-original="#CE7C5F" class=""/><path d="m21 19v8.5c0 3.4 1.7 6.6 4.6 8.4l.5.3c3.6 2.3 8.2 2.3 11.8 0l.5-.3c2.9-1.8 4.6-5 4.6-8.4v-8.5z" fill="#d8927c" data-original="#D8927C" class=""/><path d="m43 15h-22c-1.1 0-2 .9-2 2s.9 2 2 2h22c1.1 0 2-.9 2-2s-.9-2-2-2z" fill="#055bd6" data-original="#028461" class="" style="fill:#028461" data-old_color="#055bd6"/><path d="m35 5h-6c-4.4 0-8 3.6-8 8v2h22v-2c0-4.4-3.6-8-8-8z" fill="#0f73ea" data-original="#0BA84E" class="" style="fill:#0BA84E" data-old_color="#0f73ea"/><path d="m32 3c-1.1 0-2 .9-2 2v6h4v-6c0-1.1-.9-2-2-2z" fill="#4398ed" data-original="#00966E" class="" style="fill:#00966E" data-old_color="#4398ed"/><path d="m43.6 56.4-4 4c-.4.4-.9.6-1.5.6-1.2 0-2.1-.9-2.1-2.1 0-.6.2-1.1.6-1.5l4-4c.8-.8 2-.8 2.8 0l.2.2c.8.8.8 2 0 2.8z" fill="#9b5729" data-original="#9B5729" class=""/><path d="m56.6 37.8c-1-.7-2.3-.8-3.3-.2l-2 1.2c-.7-.5-1.4-.9-2.2-1.2l-7.6-3c1.1-1.4 1.9-3 2.3-4.8l2.6-1.3c1-.5 1.7-1.5 1.7-2.7v-.8c0-1.7-1.3-3-3-3h-1v-2.2c1.6-.5 2.4-2.2 1.8-3.8-.3-.9-1-1.5-1.8-1.8v-1.2c0-5-4-9-9-9h-.2c-.5-1.6-2.2-2.4-3.8-1.8-.9.3-1.5 1-1.8 1.8h-.3c-5 0-9 4-9 9v1.2c-1.6.5-2.4 2.2-1.8 3.8.3.9 1 1.5 1.8 1.8v2.2h-1c-1.7 0-3 1.3-3 3v.8c0 1.1.6 2.2 1.7 2.7l2.6 1.3c.4 1.8 1.1 3.4 2.3 4.8l-7.6 3c-4.3 1.6-7 5.7-7 10.2v14.2h48v-14.6l1.7-6.4c.3-1.2-.1-2.5-1.1-3.2zm-2.3 1.5c.2-.1.3-.1.5-.1s.4.1.6.2c.3.2.5.7.4 1.1l-1.8 6.5v.1l-.6 2.1c-.1.4-.5.7-1 .7h-4.4c-.6 0-1-.4-1-1v-4.9c0-.4.2-.7.5-.9zm-16.2 20.7c-.6 0-1.1-.5-1.1-1.1 0-.3.1-.6.3-.8l4-4c.4-.4 1-.4 1.4 0l.2.2c.4.4.4 1 0 1.4l-4 4c-.2.2-.5.3-.8.3zm-18.1-6h11v2h-11zm16.6 2h-3.6v-2h5.6zm-16.6 2h11v2h-11zm13 0h2.1c-.2.7-.2 1.4.1 2h-2.2zm11.8-4.4 1.9-1.9c.4.2.8.3 1.3.3h4.5c.5 0 1.1-.2 1.5-.4v4.4h-9c.3-.8.2-1.7-.2-2.4zm4.5-13.7-2.9 1.7c-.9.5-1.5 1.5-1.5 2.6v4.8c0 .4.1.9.3 1.3l-1.9 1.9c-.7-.4-1.6-.5-2.4-.2h-8v-2.4c4.6-2.9 7.5-7.7 7.9-13.1l7.4 3c.5.1.8.2 1.1.4zm-11.5 1.1h-11.6c-.6-1.3-.9-2.8-1.1-4.2l.4.3c3.9 2.5 9 2.5 12.9 0l.5-.3c-.2 1.4-.6 2.9-1.1 4.2zm-1.1 2c-1.2 1.9-2.8 3.6-4.7 4.8-1.9-1.2-3.5-2.9-4.7-4.8zm8.3-19c.6 0 1 .4 1 1v.8c0 .4-.2.7-.6.9l-1.4.7v-3.4zm-16-18v5h2v-6c0-.6.4-1 1-1s1 .4 1 1v6h2v-5c3.9 0 7 3.1 7 7v1h-20v-1c0-3.9 3.1-7 7-7zm-8 10h22c.6 0 1 .4 1 1s-.4 1-1 1h-22c-.6 0-1-.4-1-1s.4-1 1-1zm-3 9.8v-.8c0-.6.4-1 1-1h1v3.4l-1.4-.7c-.4-.2-.6-.6-.6-.9zm4-5.8h20v7.5c0 3.1-1.6 5.9-4.2 7.6l-.5.3c-3.3 2.1-7.5 2.1-10.7 0l-.5-.3c-2.6-1.6-4.2-4.5-4.2-7.6v-7.5zm-6.3 19.4 7.4-3c.4 5.4 3.4 10.2 7.9 13.1v2.5h-11v-1c0-4.6-3.4-8.4-7.9-8.9.9-1.2 2.2-2.1 3.6-2.7zm-5.7 8.4c0-1.3.3-2.6.8-3.8h.2c3.9 0 7 3.1 7 7v9h-8zm31.4 12.2 2-2h10.6v2z" data-original="#000000" class="active-path"/></g></g> </svg>
