<?xml version="1.0"?>
<svg xmlns="http://www.w3.org/2000/svg" xmlns:xlink="http://www.w3.org/1999/xlink" version="1.1" id="Capa_1" x="0px" y="0px" viewBox="0 0 480 480" style="enable-background:new 0 0 480 480;" xml:space="preserve" width="512px" height="512px" class=""><g><polygon style="fill:#A91515" points="400,48 80,48 48,80 48,400 80,432 400,432 432,400 432,80 " data-original="#006837" class="" data-old_color="#006837"/><rect x="96" y="96" style="fill:#BF2E2E" width="288" height="288" data-original="#009245" class="active-path" data-old_color="#009245"/><g>
	<rect x="136" y="136" style="fill:#F7931E;" width="32" height="32" data-original="#F7931E"/>
	<rect x="272" y="176" style="fill:#F7931E;" width="32" height="32" data-original="#F7931E"/>
	<rect x="200" y="240" style="fill:#F7931E;" width="32" height="32" data-original="#F7931E"/>
	<rect x="176" y="312" style="fill:#F7931E;" width="32" height="32" data-original="#F7931E"/>
	<rect x="312" y="256" style="fill:#F7931E;" width="32" height="32" data-original="#F7931E"/>
</g><path d="M440,80c0-2.122-0.844-4.156-2.344-5.656l-32-32c-1.5-1.5-3.534-2.344-5.656-2.344h-32V0h-16v40h-24V0h-16v40h-24V0h-16v40  h-24V0h-16v40h-24V0h-16v40h-24V0h-16v40h-24V0h-16v40H80c-2.122,0-4.156,0.844-5.656,2.344l-32,32C40.844,75.844,40,77.878,40,80  v32H0v16h40v24H0v16h40v24H0v16h40v24H0v16h40v24H0v16h40v24H0v16h40v24H0v16h40v32c0,2.122,0.844,4.156,2.344,5.656l32,32  c1.5,1.5,3.534,2.344,5.656,2.344h32v40h16v-40h24v40h16v-40h24v40h16v-40h24v40h16v-40h24v40h16v-40h24v40h16v-40h24v40h16v-40h32  c2.122,0,4.156-0.844,5.656-2.344l32-32c1.5-1.5,2.344-3.534,2.344-5.656v-32h40v-16h-40v-24h40v-16h-40v-24h40v-16h-40v-24h40v-16  h-40v-24h40v-16h-40v-24h40v-16h-40v-24h40v-16h-40V80z M424,396.688L396.688,424H83.312L56,396.688V83.312L83.312,56h313.376  L424,83.312V396.688z" data-original="#000000" class=""/><path d="M384,88H96c-4.418,0-8,3.582-8,8v288c0,4.418,3.582,8,8,8h288c4.418,0,8-3.582,8-8V96C392,91.582,388.418,88,384,88z   M104,216h40v40c0,4.418,3.582,8,8,8h40v8c0,4.418,3.582,8,8,8h32c4.418,0,8-3.582,8-8v-32c0-4.418-3.582-8-8-8h-32  c-4.418,0-8,3.582-8,8v8h-32v-40c0-4.418-3.582-8-8-8h-48v-96h140.688l-40,40H176v-8c0-4.418-3.582-8-8-8h-32c-4.418,0-8,3.582-8,8  v32c0,4.418,3.582,8,8,8h32c4.418,0,8-3.582,8-8v-8h32c2.122,0,4.156-0.844,5.656-2.344L267.312,104H376v24h-88  c-4.418,0-8,3.582-8,8v32h-8c-4.418,0-8,3.582-8,8v32c0,4.418,3.582,8,8,8h32c4.418,0,8-3.582,8-8v-32c0-4.418-3.582-8-8-8h-8v-24  h80v220.688l-40-40V296h8c4.418,0,8-3.582,8-8v-32c0-4.418-3.582-8-8-8h-32c-4.418,0-8,3.582-8,8v32c0,4.418,3.582,8,8,8h8v32  c0,2.122,0.844,4.156,2.344,5.656L364.688,376H280v-48c0-4.418-3.582-8-8-8h-56v-8c0-4.418-3.582-8-8-8h-32c-4.418,0-8,3.582-8,8v32  c0,4.418,3.582,8,8,8h32c4.418,0,8-3.582,8-8v-8h48v40H104V216z M208,264v-16h16v16H208z M160,144v16h-16v-16H160z M296,184v16h-16  v-16H296z M320,280v-16h16v16H320z M200,320v16h-16v-16H200z" data-original="#000000" class=""/><rect x="208" y="184" width="16" height="16" data-original="#000000" class=""/><rect x="264" y="262.92" width="16" height="16" data-original="#000000" class=""/><rect x="128" y="320" width="16" height="16" data-original="#000000" class=""/><rect x="336" y="184" width="16" height="16" data-original="#000000" class=""/></g> </svg>
