<?xml version="1.0"?>
<svg xmlns="http://www.w3.org/2000/svg" xmlns:xlink="http://www.w3.org/1999/xlink" version="1.1" id="Capa_1" x="0px" y="0px" viewBox="0 0 512.002 512.002" style="enable-background:new 0 0 512.002 512.002;" xml:space="preserve" width="512px" height="512px" class=""><g><path style="fill:#79C6E4;" d="M288.632,190.931L288.632,190.931c0,40.975-42.729,67.942-79.717,50.31  c-17.476-8.331-36.32-17.319-54.885-26.182C88.205,183.633,11.11,230.273,9.705,303.203c-0.02,1.042-0.03,2.086-0.03,3.132  c0,109.444,110.283,198.167,246.326,198.167s246.326-88.722,246.326-198.167c0-73.837-50.198-138.237-124.636-172.327  C336.052,114.94,288.632,145.136,288.632,190.931z" data-original="#79C6E4" class=""/><path style="opacity:0.1;enable-background:new    ;" d="M426.122,163.033c31.674,33.341,50.493,75.007,50.493,120.211  c0,109.444-110.283,198.167-246.326,198.167c-65.945,0-125.835-20.848-170.047-54.797c45.013,47.343,115.945,77.889,195.758,77.889  c136.042,0,246.326-88.722,246.326-198.167C502.325,249.973,473.074,199.112,426.122,163.033z" data-original="#000000" class=""/><circle style="fill:#1273EB" cx="116.529" cy="349.7" r="32.62" data-original="#FFFFFF" class="active-path" data-old_color="#FFFFFF"/><circle style="fill:#FFCE00" cx="219.309" cy="420.869" r="32.62" data-original="#FBE096" class="" data-old_color="#FBE096"/><circle style="fill:#ED718B;" cx="338.968" cy="412.849" r="32.62" data-original="#ED718B" class=""/><circle style="fill:#00AF80" cx="419.467" cy="321.94" r="32.62" data-original="#FDA75F" class="" data-old_color="#FDA75F"/><path style="opacity:0.1;enable-background:new    ;" d="M439.565,296.251c4.341,5.54,6.936,12.514,6.936,20.097  c0,18.015-14.604,32.62-32.62,32.62c-7.584,0-14.557-2.595-20.097-6.936c5.971,7.62,15.252,12.523,25.684,12.523  c18.015,0,32.62-14.604,32.62-32.62C452.088,311.503,447.185,302.222,439.565,296.251z" data-original="#000000" class=""/><path style="opacity:0.1;enable-background:new    ;" d="M359.063,387.163c4.341,5.54,6.936,12.513,6.936,20.097  c0,18.015-14.604,32.62-32.62,32.62c-7.584,0-14.557-2.595-20.097-6.936c5.971,7.62,15.252,12.523,25.684,12.523  c18.015,0,32.62-14.604,32.62-32.62C371.586,402.415,366.684,393.134,359.063,387.163z" data-original="#000000" class=""/><path style="opacity:0.1;enable-background:new    ;" d="M239.406,395.188c4.341,5.54,6.936,12.513,6.936,20.097  c0,18.015-14.604,32.62-32.62,32.62c-7.584,0-14.557-2.595-20.097-6.936c5.971,7.62,15.252,12.523,25.684,12.523  c18.015,0,32.62-14.604,32.62-32.62C251.928,410.44,247.026,401.16,239.406,395.188z" data-original="#000000" class=""/><path style="opacity:0.1;enable-background:new    ;" d="M136.628,324.019c4.341,5.54,6.936,12.513,6.936,20.097  c0,18.015-14.604,32.62-32.62,32.62c-7.584,0-14.557-2.595-20.097-6.936c5.971,7.62,15.252,12.523,25.684,12.523  c18.015,0,32.62-14.604,32.62-32.62C149.15,339.272,144.248,329.991,136.628,324.019z" data-original="#000000" class=""/><g>
	<path style="fill:#404B58" d="M187.304,325.244c-3.571,0-6.736-2.56-7.377-6.199l-2.41-13.67   c-0.719-4.079,2.005-7.969,6.084-8.688c4.084-0.719,7.969,2.004,8.689,6.084l2.41,13.67c0.719,4.079-2.005,7.969-6.084,8.688   C188.175,325.207,187.736,325.244,187.304,325.244z" data-original="#404B58" class="" data-old_color="#404B58"/>
	<path style="fill:#404B58" d="M352.003,296.203c-3.571,0-6.736-2.56-7.377-6.199l-2.41-13.67   c-0.719-4.079,2.005-7.969,6.084-8.688c4.081-0.72,7.969,2.004,8.689,6.084l2.41,13.67c0.719,4.079-2.005,7.969-6.084,8.688   C352.874,296.166,352.435,296.203,352.003,296.203z" data-original="#404B58" class="" data-old_color="#404B58"/>
	<path style="fill:#404B58" d="M266.445,321.663c-8.339,0-16.504-2.844-23.101-8.173c-3.222-2.602-3.724-7.324-1.122-10.547   c2.603-3.223,7.325-3.725,10.547-1.121c4.899,3.956,11.255,5.6,17.44,4.512c6.184-1.091,11.595-4.811,14.845-10.205   c2.138-3.548,6.748-4.69,10.294-2.553c3.548,2.138,4.691,6.747,2.553,10.295c-5.489,9.109-14.633,15.391-25.088,17.234   C270.696,321.479,268.564,321.663,266.445,321.663z" data-original="#404B58" class="" data-old_color="#404B58"/>
</g><path style="opacity:0.1;enable-background:new    ;" d="M154.032,215.06c-17.29-8.255-35.357-11.116-52.626-9.537L70.822,244.76  c-11.185,14.349-9.924,34.784,2.941,47.649l0,0c12.865,12.865,33.3,14.126,47.649,2.941l67.885-52.916  c2.773-2.161,5.492-4.384,8.173-6.65C183.347,229.05,168.608,222.019,154.032,215.06z" data-original="#000000" class=""/><path style="fill:#FFCE00" d="M295.923,119.151c19.257-19.257,29.618-61.261,28.955-100.732  c-0.121-7.226-6.976-12.399-13.957-10.528c-32.574,8.727-74.414,13.936-93.367,32.891c-21.641,21.641-21.641,56.729,0,78.37  S274.281,140.792,295.923,119.151z" data-original="#FBE096" class="" data-old_color="#FBE096"/><path style="opacity:0.1;enable-background:new    ;" d="M217.553,119.151c-0.208-0.208-0.4-0.425-0.604-0.635  c21.355,13.145,49.688,10.479,68.195-8.028C304.4,91.231,314.76,49.227,314.098,9.756c-0.013-0.775-0.108-1.525-0.268-2.246  c5.86,0.006,10.943,4.696,11.047,10.909c0.662,39.472-9.699,81.477-28.955,100.732C274.281,140.792,239.194,140.792,217.553,119.151  z" data-original="#000000" class=""/><g style="opacity:0.1;">
	<path d="M269.509,109.247c-2.571,0-5.074-1.322-6.471-3.698c-2.1-3.57-0.909-8.167,2.662-10.268   c13.978-8.223,24.27-34.882,25.064-44.411c0.344-4.128,3.965-7.203,8.097-6.851c4.128,0.345,7.195,3.97,6.852,8.098   c-1.132,13.589-13.26,44.831-32.407,56.095C272.11,108.913,270.801,109.247,269.509,109.247z" data-original="#000000" class=""/>
	<path d="M229.206,77.281c-0.522,0-1.053-0.056-1.584-0.17c-4.049-0.871-6.626-4.859-5.755-8.909   c3.24-15.065,19.708-24.582,27.963-27.509c3.9-1.387,8.19,0.657,9.576,4.562c1.384,3.904-0.658,8.191-4.562,9.575   c-6.443,2.285-16.719,9.117-18.312,16.526C235.773,74.874,232.664,77.281,229.206,77.281z" data-original="#000000" class=""/>
</g><path style="fill:#ED718B;" d="M106.678,280.616l67.885-52.916c25.046-19.523,46.405-43.361,63.071-70.392l0,0  c5.52-8.952,6.523-19.975,2.71-29.777l0,0c-5.563-14.3-16.872-25.61-31.172-31.172l0,0c-9.802-3.813-20.824-2.809-29.777,2.71l0,0  c-27.031,16.666-50.869,38.025-70.392,63.071l-52.916,67.885c-11.185,14.349-9.924,34.784,2.941,47.649l0,0  C71.894,290.539,92.329,291.8,106.678,280.616z" data-original="#ED718B" class=""/><path style="fill:#404B58" d="M151.193,119.105c8.943-7.266,18.358-13.965,28.203-20.035l0,0c8.952-5.52,19.975-6.523,29.777-2.71  l0,0c14.3,5.563,25.61,16.872,31.172,31.172l0,0c3.813,9.802,2.809,20.824-2.71,29.777l0,0c-6.07,9.845-12.769,19.26-20.035,28.203  L151.193,119.105z" data-original="#404B58" class="" data-old_color="#404B58"/><path style="opacity:0.1;enable-background:new    ;" d="M174.563,227.7l-67.885,52.915c-14.349,11.185-34.784,9.924-47.649-2.941  l0,0c-2.024-2.024-3.759-4.236-5.206-6.581c12.563,7.747,28.976,7.161,41.068-2.265l67.885-52.915  c25.046-19.523,46.405-43.361,63.071-70.392l0,0c5.52-8.952,6.523-19.975,2.71-29.777l0,0c-1.749-4.497-4.068-8.697-6.869-12.517  c8.327,6.104,14.842,14.5,18.656,24.303l0,0c3.813,9.802,2.809,20.824-2.71,29.777l0,0  C220.968,184.34,199.609,208.177,174.563,227.7z" data-original="#000000" class=""/><path d="M76.411,349.704c0,22.122,17.997,40.119,40.12,40.119s40.12-17.997,40.12-40.119s-17.998-40.12-40.12-40.12  S76.411,327.582,76.411,349.704z M141.65,349.704c0,13.851-11.269,25.119-25.12,25.119s-25.12-11.268-25.12-25.119  c0-13.852,11.268-25.12,25.12-25.12S141.65,335.852,141.65,349.704z M419.468,281.815c-22.122,0-40.12,17.998-40.12,40.12  s17.998,40.119,40.12,40.119c22.122,0,40.12-17.997,40.12-40.119C459.587,299.813,441.59,281.815,419.468,281.815z M419.468,347.054  c-13.851,0-25.12-11.269-25.12-25.119c0-13.852,11.269-25.12,25.12-25.12c13.851,0,25.12,11.269,25.12,25.12  C444.587,335.786,433.319,347.054,419.468,347.054z M487.997,222.717c-1.994-3.63-6.553-4.959-10.184-2.963  c-3.631,1.993-4.958,6.554-2.963,10.184c13.255,24.134,19.977,49.838,19.977,76.397c0,105.134-107.136,190.667-238.826,190.667  c-38.053,0-74.426-6.942-108.108-20.633c-32.004-13.009-60.436-31.997-82.225-54.911c-2.854-3.003-7.602-3.122-10.603-0.268  c-3.002,2.854-3.122,7.602-0.267,10.604c23.245,24.447,53.483,44.666,87.446,58.471c35.485,14.424,73.759,21.737,113.756,21.737  c67.5,0,131.027-21.201,178.88-59.698c48.329-38.881,74.946-90.72,74.946-145.969C509.826,277.222,502.481,249.088,487.997,222.717z   M17.175,306.335c0-0.998,0.009-1.994,0.028-2.987c0.45-23.374,9.539-44.957,24.98-61.286c-3.403,14.322,0.56,29.932,11.544,40.914  c8.435,8.436,19.599,12.736,30.813,12.736c9.409,0,18.855-3.029,26.75-9.183L177.78,234.7c9.513,4.539,18.899,9.015,27.91,13.311  c8.697,4.146,17.99,6.199,27.251,6.198c11.724,0,23.392-3.294,33.708-9.804c18.463-11.652,29.486-31.643,29.486-53.476  c0-18.865,9.469-36.206,25.33-46.388c15.963-10.245,35.814-11.638,53.105-3.717c28.96,13.263,54.697,31.674,74.427,53.243  c2.797,3.056,7.54,3.267,10.596,0.472c3.057-2.796,3.268-7.54,0.472-10.597c-21.074-23.038-48.478-42.664-79.25-56.757  c-21.955-10.054-47.173-8.286-67.453,4.732c-20.18,12.953-32.227,35.014-32.227,59.011c0,16.653-8.408,31.902-22.491,40.79  c-14.085,8.889-31.466,9.917-46.498,2.75c-6.996-3.335-14.224-6.781-21.554-10.277c20.892-18.163,38.833-39.277,53.429-62.95  c3.521-5.71,5.52-12.173,5.972-18.746c2.229,0.238,4.46,0.362,6.686,0.362c16.49,0,32.618-6.473,44.551-18.405  c19.675-19.676,31.903-61.347,31.151-106.161c-0.097-5.772-2.792-11.07-7.392-14.54c-4.599-3.468-10.433-4.602-16.005-3.107  c-7.322,1.961-15.021,3.719-23.171,5.58c-28.228,6.444-57.417,13.109-73.56,29.252c-13.542,13.542-20.047,32.487-18.044,51.236  c-6.574,0.452-13.036,2.451-18.747,5.972c-27.884,17.192-52.233,39.01-72.371,64.844l-39.64,50.855  c-37.041,17.758-60.46,53.855-61.246,94.676c-0.021,1.091-0.031,2.183-0.031,3.276c0,32.669,9.16,63.899,27.227,92.824  c1.423,2.278,3.867,3.528,6.369,3.528c1.356,0,2.73-0.368,3.966-1.14c3.513-2.194,4.583-6.821,2.388-10.334  C25.569,364.708,17.175,336.151,17.175,306.335z M222.857,46.085c13.088-13.089,40.136-19.264,66.292-25.236  c7.926-1.81,16.122-3.681,23.714-5.715c1.48-0.393,2.573,0.203,3.092,0.596c0.521,0.394,1.399,1.281,1.425,2.815  c0.676,40.321-10.078,78.621-26.76,95.302c-11.147,11.147-27.102,16.014-42.485,13.222c-0.244-0.758-0.511-1.511-0.801-2.257  c-6.308-16.217-19.227-29.135-35.443-35.443c-0.746-0.29-1.498-0.557-2.256-0.801C206.845,73.186,211.711,57.23,222.857,46.085z   M62.003,234.636L74.269,218.9c0.006-0.008,0.012-0.015,0.018-0.024l40.631-52.126c10.711-13.741,22.682-26.279,35.8-37.514  l27.377,27.377c1.464,1.464,3.384,2.196,5.303,2.196c1.919,0,3.839-0.732,5.303-2.196c2.929-2.93,2.929-7.678,0-10.607  l-26.232-26.232c6.698-5.089,13.65-9.875,20.862-14.322c4.146-2.556,8.917-3.862,13.704-3.862c3.192,0,6.391,0.581,9.418,1.759  c12.308,4.787,22.114,14.593,26.901,26.9c2.943,7.566,2.156,16.211-2.105,23.122c-4.446,7.212-9.232,14.164-14.321,20.863  l-3.896-3.896c-2.929-2.928-7.678-2.928-10.606,0c-2.929,2.93-2.929,7.678,0,10.607l5.039,5.039  c-11.234,13.117-23.773,25.088-37.514,35.8L102.066,274.7c-11.344,8.841-27.567,7.839-37.735-2.33  C54.164,262.202,53.162,245.98,62.003,234.636z M187.304,325.244c0.432,0,0.871-0.037,1.311-0.115  c4.079-0.719,6.803-4.609,6.083-8.688l-2.411-13.67c-0.72-4.079-4.604-6.802-8.689-6.083c-4.079,0.719-6.803,4.609-6.083,8.689  l2.411,13.67C180.569,322.684,183.733,325.244,187.304,325.244z M352.003,296.203c0.432,0,0.871-0.037,1.311-0.115  c4.079-0.719,6.803-4.609,6.083-8.689l-2.411-13.67c-0.72-4.079-4.607-6.803-8.689-6.083c-4.079,0.719-6.803,4.609-6.084,8.689  l2.411,13.67C345.268,293.643,348.432,296.203,352.003,296.203z M272.815,321.105c10.455-1.844,19.599-8.125,25.088-17.234  c2.138-3.548,0.995-8.157-2.553-10.295c-3.549-2.138-8.157-0.995-10.295,2.553c-3.251,5.395-8.662,9.114-14.846,10.205  c-6.182,1.09-12.54-0.554-17.44-4.512c-3.223-2.602-7.944-2.1-10.547,1.123c-2.602,3.223-2.1,7.944,1.123,10.547  c6.597,5.328,14.761,8.171,23.099,8.171C268.564,321.663,270.696,321.479,272.815,321.105z M219.31,460.992  c22.122,0,40.12-17.997,40.12-40.119s-17.997-40.12-40.12-40.12s-40.12,17.998-40.12,40.12S197.188,460.992,219.31,460.992z   M219.31,395.752c13.851,0,25.12,11.269,25.12,25.12c0,13.851-11.268,25.119-25.12,25.119c-13.851,0-25.12-11.269-25.12-25.119  C194.19,407.021,205.459,395.752,219.31,395.752z M338.966,452.966c22.123,0,40.12-17.998,40.12-40.12  c0-22.122-17.997-40.119-40.12-40.119c-22.122,0-40.12,17.997-40.12,40.119C298.847,434.968,316.844,452.966,338.966,452.966z   M338.966,387.727c13.851,0,25.12,11.269,25.12,25.119c0,13.852-11.269,25.12-25.12,25.12c-13.851,0-25.12-11.269-25.12-25.12  C313.847,398.996,325.115,387.727,338.966,387.727z" data-original="#000000" class=""/></g> </svg>
