<?xml version="1.0"?>
<svg xmlns="http://www.w3.org/2000/svg" xmlns:xlink="http://www.w3.org/1999/xlink" version="1.1" id="Capa_1" x="0px" y="0px" viewBox="0 0 512 512" style="enable-background:new 0 0 512 512;" xml:space="preserve" width="512px" height="512px" class=""><g><g><polygon style="fill:#9EBECC;" points="316.431,469.384 195.569,469.384 221.069,361.303 290.931,361.303 " data-original="#9EBECC"/><polygon style="fill:#86AEBC;" points="256,469.384 316.431,469.384 290.931,361.303 256,361.303 " data-original="#86AEBC" class=""/><path style="fill:#DFEAEF;" d="M483.611,384.458H28.389c-11.534,0-20.884-9.35-20.884-20.884V49.581  c0-11.534,9.35-20.884,20.884-20.884H483.61c11.534,0,20.884,9.35,20.884,20.884v313.994  C504.494,375.109,495.144,384.458,483.611,384.458z" data-original="#DFEAEF" class=""/><path style="fill:#BFCFD6;" d="M483.611,28.698h-31.548v311.721c0,11.534-9.35,20.884-20.883,20.884H7.506v2.272  c0,11.534,9.35,20.884,20.884,20.884h455.221c11.534,0,20.884-9.35,20.884-20.884V49.581  C504.494,38.048,495.145,28.698,483.611,28.698z" data-original="#BFCFD6" class=""/><path style="fill:#435256;" d="M377.363,483.302H134.637c-5.377,0-9.736-4.359-9.736-9.736v-14.653c0-5.377,4.359-9.736,9.736-9.736  h242.726c5.377,0,9.736,4.359,9.736,9.736v14.653C387.099,478.943,382.74,483.302,377.363,483.302z" data-original="#435256"/><path style="fill:#2D3B3D;" d="M377.363,449.178h-42.502l0,0c0,11.507-9.329,20.836-20.836,20.836H134.637  c-5.377,0-9.736-4.359-9.736-9.736v13.289c0,5.377,4.359,9.736,9.736,9.736h200.224h42.502c5.377,0,9.736-4.359,9.736-9.736v-13.289  v-1.364C387.099,453.536,382.74,449.178,377.363,449.178z" data-original="#2D3B3D"/><path style="fill:#516666" d="M471.469,318.245V68.753c0-3.883-3.148-7.031-7.031-7.031H47.561c-3.883,0-7.031,3.148-7.031,7.031  v249.491c0,3.883,3.148,7.031,7.031,7.031h416.877C468.322,325.275,471.469,322.128,471.469,318.245z" data-original="#516666" class="" data-old_color="#35E5E5"/><path style="fill:#465D5C" d="M464.438,61.723h-12.376v263.553h12.376c3.883,0,7.031-3.148,7.031-7.031V68.753  C471.469,64.87,468.322,61.723,464.438,61.723z" data-original="#465D5C" class="" data-old_color="#28CEC9"/><path d="M483.61,21.192H28.39C12.735,21.192,0,33.927,0,49.581v313.993c0,15.654,12.735,28.389,28.39,28.389h177.734l-11.728,49.708  h-59.759c-9.507,0-17.242,7.734-17.242,17.242v14.653c0,9.507,7.734,17.242,17.242,17.242h242.726  c9.507,0,17.242-7.735,17.242-17.242v-14.653c0-9.507-7.734-17.242-17.242-17.242h-59.759l-11.728-49.708H483.61  c15.654,0,28.39-12.735,28.39-28.389V49.581C512,33.927,499.265,21.192,483.61,21.192z M377.363,456.683c1.229,0,2.23,1,2.23,2.23  v14.653c0,1.23-1.001,2.231-2.23,2.231H134.637c-1.229,0-2.23-1.001-2.23-2.231v-14.653c0-1.23,1.001-2.23,2.23-2.23H377.363z   M209.82,441.672l11.728-49.708h68.906l11.728,49.708H209.82z M496.989,363.575c0,7.377-6.002,13.378-13.378,13.378H296.394h-80.788  H28.39c-7.377,0-13.378-6.001-13.378-13.378V49.581c0-7.377,6.002-13.378,13.378-13.378h455.22c7.377,0,13.378,6.002,13.378,13.378  v313.994H496.989z" data-original="#000000" class="active-path" style="fill:#000000"/><path d="M471.469,219.087c-4.146,0-7.506,3.36-7.506,7.506v91.177H48.036v-91.177c0-4.145-3.36-7.506-7.506-7.506  s-7.506,3.36-7.506,7.506v91.652c0,8.015,6.521,14.536,14.536,14.536h416.877c8.016,0,14.536-6.521,14.536-14.536v-91.652  C478.975,222.448,475.615,219.087,471.469,219.087z" data-original="#000000" class="active-path" style="fill:#000000"/><path d="M464.439,54.217H47.561c-8.016,0-14.536,6.521-14.536,14.537v117.809c0,4.145,3.36,7.506,7.506,7.506  s7.506-3.36,7.506-7.506V69.228h415.927v117.335c0,4.145,3.36,7.506,7.506,7.506c4.146,0,7.506-3.36,7.506-7.506V68.754  C478.975,60.738,472.454,54.217,464.439,54.217z" data-original="#000000" class="active-path" style="fill:#000000"/></g></g> </svg>
